<?xml version="1.0" encoding="utf-8"?>
<!-- Generator: Adobe Illustrator 17.0.0, SVG Export Plug-In . SVG Version: 6.00 Build 0)  -->
<!DOCTYPE svg PUBLIC "-//W3C//DTD SVG 1.1//EN" "http://www.w3.org/Graphics/SVG/1.1/DTD/svg11.dtd">
<svg version="1.1" id="Layer_1" xmlns="http://www.w3.org/2000/svg" xmlns:xlink="http://www.w3.org/1999/xlink" x="0px" y="0px"
	 width="181.879px" height="104.746px" viewBox="0 0 181.879 104.746" enable-background="new 0 0 181.879 104.746"
	 xml:space="preserve">
<path fill="#383938" d="M104.746,45.998V0H0v104.746h104.746V66.041c-0.016-0.026-0.035-0.049-0.05-0.075
	c-0.87-1.462-1.495-3.1-1.878-4.911c-0.383-1.811-0.575-3.583-0.575-5.321c0-1.736,0.217-3.485,0.651-5.246
	C103.298,48.85,103.922,47.358,104.746,45.998z"/>
<path fill="#669ED5" d="M17.039,18.923h6.592v22.25c1.38-1.785,3.104-3.174,5.174-4.167c2.069-0.991,4.254-1.488,6.553-1.488
	c2.81,0,5.289,0.596,7.435,1.786c2.146,1.19,3.947,2.741,5.403,4.651c1.457,1.91,2.555,4.081,3.296,6.511
	c0.74,2.432,1.111,4.862,1.111,7.293c0,2.63-0.358,5.197-1.073,7.702c-0.716,2.505-1.801,4.737-3.258,6.697
	c-1.456,1.96-3.296,3.534-5.519,4.725c-2.223,1.191-4.842,1.786-7.856,1.786c-2.351,0-4.535-0.496-6.553-1.488
	c-2.019-0.991-3.667-2.455-4.944-4.391c0,0.596,0,1.241,0,1.936c0,0.645-0.077,1.265-0.23,1.86
	c-0.153,0.595-0.448,1.092-0.881,1.488c-0.435,0.396-1.086,0.595-1.955,0.595c-0.919,0-1.699-0.335-2.338-1.005
	c-0.639-0.669-0.958-1.425-0.958-2.27V18.923z M23.938,61.6c0.357,1.761,0.983,3.337,1.878,4.725
	c0.894,1.39,2.069,2.506,3.526,3.349c1.456,0.845,3.308,1.266,5.557,1.266c2.043,0,3.756-0.471,5.135-1.414
	c1.38-0.941,2.491-2.133,3.334-3.572c0.843-1.438,1.456-3.051,1.839-4.837s0.575-3.497,0.575-5.135c0-1.686-0.191-3.41-0.575-5.172
	c-0.383-1.76-1.022-3.36-1.916-4.8c-0.895-1.438-2.058-2.604-3.487-3.497c-1.431-0.893-3.194-1.34-5.289-1.34
	c-2.197,0-4.012,0.46-5.442,1.377c-1.431,0.919-2.567,2.097-3.411,3.535c-0.843,1.439-1.431,3.051-1.763,4.837
	c-0.333,1.786-0.498,3.547-0.498,5.283C23.401,58.041,23.58,59.84,23.938,61.6z"/>
<path fill="#669ED5" d="M84.526,39.388c-0.026-0.694,0.051-1.327,0.23-1.898c0.179-0.569,0.485-1.041,0.92-1.413
	c0.434-0.372,1.111-0.559,2.031-0.559c0.868,0,1.596,0.335,2.185,1.005c0.586,0.67,0.881,1.402,0.881,2.195v35.421
	c0,2.629-0.498,5.072-1.495,7.33c-0.997,2.257-2.364,4.216-4.101,5.879c-1.738,1.661-3.782,2.964-6.132,3.907
	c-2.351,0.941-4.88,1.413-7.588,1.413c-0.818,0-1.647-0.025-2.491-0.074c-0.843-0.05-1.648-0.198-2.415-0.446
	c-0.051,0-0.077-0.074-0.077-0.224v-0.223c0-0.943,0.039-1.873,0.115-2.791s0.165-1.823,0.268-2.716
	c1.583,0.446,3.219,0.67,4.905,0.67c2.3,0,4.254-0.385,5.864-1.153c1.609-0.771,2.924-1.812,3.947-3.126
	c1.021-1.314,1.763-2.854,2.223-4.613c0.46-1.762,0.69-3.634,0.69-5.618c0-0.248,0-0.496,0-0.744c0-0.298-0.026-0.57-0.077-0.819
	c-1.329,2.035-3.016,3.561-5.059,4.577c-2.044,1.016-4.292,1.525-6.745,1.525c-2.862,0-5.365-0.571-7.511-1.712
	c-2.146-1.141-3.96-2.653-5.442-4.539c-1.483-1.885-2.594-4.019-3.334-6.399c-0.741-2.382-1.111-4.837-1.111-7.367
	s0.37-5.061,1.111-7.591c0.74-2.53,1.84-4.812,3.296-6.846c1.457-2.034,3.283-3.684,5.48-4.949c2.196-1.265,4.777-1.897,7.741-1.897
	c2.299,0,4.496,0.497,6.592,1.488c2.095,0.993,3.806,2.432,5.135,4.316C84.565,40.752,84.552,40.083,84.526,39.388z M78.778,69.711
	c1.354-0.917,2.453-2.083,3.296-3.497c0.843-1.414,1.457-2.964,1.84-4.651c0.383-1.686,0.575-3.322,0.575-4.911
	c0-1.339-0.038-2.69-0.115-4.056c-0.077-1.363-0.307-2.653-0.69-3.869c-0.383-1.215-0.958-2.345-1.725-3.386
	c-0.767-1.042-1.814-1.936-3.143-2.68c-1.636-0.893-3.347-1.339-5.135-1.339c-2.096,0-3.884,0.435-5.365,1.302
	c-1.483,0.869-2.683,1.998-3.603,3.386c-0.92,1.39-1.598,2.966-2.031,4.726c-0.435,1.762-0.651,3.511-0.651,5.246
	c0,1.786,0.204,3.585,0.613,5.396c0.409,1.812,1.073,3.436,1.993,4.874c0.919,1.439,2.133,2.604,3.641,3.498
	c1.507,0.893,3.359,1.339,5.557,1.339C75.776,71.088,77.423,70.63,78.778,69.711z"/>
<path fill="#383938" d="M124.739,38.904c0.025-0.62,0.127-1.178,0.307-1.674c0.179-0.496,0.499-0.905,0.958-1.228
	c0.459-0.322,1.149-0.484,2.069-0.484c0.868,0,1.596,0.323,2.185,0.967c0.586,0.646,0.881,1.365,0.881,2.158v37.506h-6.515v-5.73
	c-1.227,2.035-2.849,3.56-4.867,4.576c-2.019,1.017-4.229,1.525-6.63,1.525c-2.913,0-5.48-0.595-7.703-1.786
	s-4.075-2.753-5.557-4.688c-1.483-1.935-2.606-4.13-3.373-6.586c-0.767-2.456-1.15-4.973-1.15-7.553c0-2.53,0.395-5.01,1.188-7.441
	c0.792-2.43,1.941-4.601,3.449-6.511c1.506-1.909,3.359-3.46,5.557-4.651c2.196-1.191,4.726-1.786,7.588-1.786
	c2.248,0,4.381,0.447,6.4,1.34c2.018,0.893,3.743,2.208,5.174,3.944C124.701,40.158,124.713,39.525,124.739,38.904z M102.818,61.154
	c0.383,1.812,1.008,3.449,1.878,4.911c0.868,1.464,2.031,2.667,3.487,3.609c1.457,0.943,3.231,1.414,5.327,1.414
	c2.299,0,4.189-0.471,5.672-1.414c1.481-0.942,2.644-2.158,3.487-3.646s1.418-3.163,1.725-5.023s0.46-3.732,0.46-5.618
	c0-1.686-0.167-3.398-0.498-5.135c-0.333-1.736-0.92-3.286-1.763-4.651c-0.843-1.364-1.968-2.48-3.373-3.349
	c-1.406-0.868-3.181-1.302-5.327-1.302c-2.096,0-3.884,0.446-5.365,1.339c-1.483,0.893-2.683,2.059-3.603,3.498
	c-0.92,1.439-1.598,3.039-2.031,4.8c-0.435,1.761-0.651,3.51-0.651,5.246C102.243,57.571,102.434,59.344,102.818,61.154z"/>
<path fill="#383938" d="M135.431,38.643c0-0.942,0.332-1.699,0.997-2.27c0.664-0.57,1.456-0.856,2.376-0.856
	c0.868,0,1.597,0.323,2.185,0.967c0.587,0.646,0.881,1.365,0.881,2.158v37.282h-6.438V38.643z M136.581,24.84
	c0.51-0.521,1.175-0.782,1.993-0.782c0.715,0,1.354,0.249,1.917,0.744c0.562,0.497,0.843,1.116,0.843,1.86s-0.268,1.377-0.805,1.898
	s-1.188,0.781-1.955,0.781c-0.716,0-1.354-0.26-1.916-0.781c-0.563-0.521-0.843-1.128-0.843-1.823
	C135.814,25.993,136.07,25.36,136.581,24.84z"/>
<path fill="#383938" d="M175.478,38.904c0.025-0.62,0.127-1.178,0.307-1.674c0.179-0.496,0.499-0.905,0.958-1.228
	c0.459-0.322,1.149-0.484,2.069-0.484c0.868,0,1.596,0.323,2.185,0.967c0.586,0.646,0.881,1.365,0.881,2.158v37.506h-6.515v-5.73
	c-1.227,2.035-2.849,3.56-4.867,4.576c-2.019,1.017-4.229,1.525-6.63,1.525c-2.913,0-5.48-0.595-7.703-1.786
	s-4.075-2.753-5.557-4.688c-1.483-1.935-2.606-4.13-3.373-6.586c-0.767-2.456-1.15-4.973-1.15-7.553c0-2.53,0.395-5.01,1.188-7.441
	c0.792-2.43,1.941-4.601,3.449-6.511c1.506-1.909,3.359-3.46,5.557-4.651c2.196-1.191,4.726-1.786,7.588-1.786
	c2.248,0,4.381,0.447,6.4,1.34c2.018,0.893,3.743,2.208,5.174,3.944C175.44,40.158,175.452,39.525,175.478,38.904z M153.557,61.154
	c0.383,1.812,1.008,3.449,1.878,4.911c0.868,1.464,2.031,2.667,3.487,3.609c1.457,0.943,3.231,1.414,5.327,1.414
	c2.299,0,4.189-0.471,5.672-1.414c1.481-0.942,2.644-2.158,3.487-3.646s1.418-3.163,1.725-5.023s0.46-3.732,0.46-5.618
	c0-1.686-0.167-3.398-0.498-5.135c-0.333-1.736-0.92-3.286-1.763-4.651c-0.843-1.364-1.968-2.48-3.373-3.349
	c-1.406-0.868-3.181-1.302-5.327-1.302c-2.096,0-3.884,0.446-5.365,1.339c-1.483,0.893-2.683,2.059-3.603,3.498
	c-0.92,1.439-1.598,3.039-2.031,4.8c-0.435,1.761-0.651,3.51-0.651,5.246C152.983,57.571,153.174,59.344,153.557,61.154z"/>
</svg>
